<svg id="Layer_1" data-name="Layer 1" xmlns="http://www.w3.org/2000/svg" viewBox="0 0 1075.09 950.95"><defs><style>.cls-1,.cls-3{fill:#662d91;}.cls-1,.cls-2{stroke:#000;stroke-miterlimit:10;}.cls-2{fill:#f0f;}</style></defs><title>logo</title><path class="cls-1" d="M774.33,1408.42s-11.91-47.08-11-97.45c0,0-18.32,9.16-21.07,19.23,0,0-11.91-20.15,0-36.64l-16.48,19.24s-14.66-44.88,33-63.2c0,0-22.9-36.64,15.57-46.71h17.4s12.83,7.32,0,9.15c0,0-21.06,7.33-14.65,17.41,0,0,27.48,17.4,26.56-14.66l-68.7-155.71s-80.6,11.91-111.74-11l-127.32,45.8s-14.65,6.41-6.41-22l66.87-90.68s-15.57-28.4-11.91-37.56l-19.24,8.25-15.57-30.23,3.67-16.48,18.32-3.67s-.92-59.53,22.89-120l18.32-24.73S734,666.15,787.15,653.32l57.71,34.81s11.9,14.65,38.47-26.56c0,0,21.06-22,22.89-69.62,0,0-2.74-13.73-25.64-34.8,0,0-9.16-11.91,5.49-7.33,0,0,53.13,33,55.88,69.61,0,0,14.65,45.8-9.16,67.78,0,0-21.07,27.48-22.9,26.56s34.8.92,53.12-54.95c0,0,3.67-39.39,10.08-4.58,0,0,13.74,34.8,0,65,0,0-19.52,33.89-50.52,39.39,0,0,21.21,3.66,19.38,18.31,0,0,9.16,22-11.91,7.33,0,0-20.15-8.24-11.91,6.41,0,0,43,89.77,31.14,111.75,0,0-51.29,98.92-77.85,120,0,0,21.07,47.62,69.61,92.51,0,0,17.4,22,66.86,35.72,0,0,30.23-17.41,42.14-41.22,0,0,14.65-54-69.61-109,0,0-15.58-8.92,2.74-21.86,0,0,33.89-45,44.88-45.92l-16.48-15.57a40,40,0,0,1,1.83-36.63s19.23-66.87,70.53-122.74c0,0,155.71-153.88,255.54-155.71,0,0,10.08-3.66,5.5,25.65,0,0,0,22.89-16.49,40.3,0,0,7.33,27.48-7.33,61.37,0,0-27.47,51-103.5,118.93,0,0-9.16,30.36-.91,26.7,0,0,103.5-13.74,113.57-7.33s12.47,1.83,15.85,8.25c0,0,42.41,7.32,0,35.72,0,0-48.82,27.48-109.27,34.8,0,0-1.83,7.33,11,13.74,0,0,40.3,10.08,36.64,75.11,0,0,0,9.16-15.57,11.91,0,0,67.78-2.75-3.67,58.62l-10.07,4.58s25.64,25.64-8.25,61.36c0,0-41.21,8.25-52.2.92,0,0,43,15.57,8.24,39.38,0,0,75.11,60.46,87,115.41,0,0,51.3,27.48,66.87,29.31l63.2,5.5s31.14-33.89,25.64-55.87L1410,1256.93s-27.48-15.58-66-.92c0,0-23.81,29.31-14.65-10.08,0,0,20.15-44.88,36.64-45.79,0,0-55.88,21.06-46.72,70.52,0,0,23.82,22.9-7.32,8.25,0,0-22-37.56,3.66-71.45,0,0,30.22-34.8,44-36.63l35.73-12.83s-54-28.39,11.9-96.17c0,0,62.35-30.43,15.57,9.16,0,0-20.15,44,.92,60.45,0,0,17.4,11,31.14,5.5,0,0,27.85,2.75,27.85,6.41,0,0,176.23,188.5,0,265.07Z" transform="translate(-486.46 -548.27)"/><path class="cls-2" d="M552.43,939.1l11.91-5.5S633,1006,664.18,1006c0,0,73.27-56.79,73.27-88.85,0,0,.92-38.47-14.65-91.59l-155.71,34.8-14.66,9.16L557,895.13l-44.88,11-3.66,9.62s6.41,34.35,12.82,37.09Z" transform="translate(-486.46 -548.27)"/><path class="cls-3" d="M774.33,1408.42s378.2,204.31,708.39,0C1482.72,1408.42,1118.82,1328.08,774.33,1408.42Z" transform="translate(-486.46 -548.27)"/></svg>